<?xml version="1.0" encoding="utf-8"?>
<!-- Generator: Adobe Illustrator 16.0.0, SVG Export Plug-In . SVG Version: 6.00 Build 0)  -->
<!DOCTYPE svg PUBLIC "-//W3C//DTD SVG 1.1//EN" "http://www.w3.org/Graphics/SVG/1.1/DTD/svg11.dtd">
<svg version="1.1" id="Layer_1" xmlns="http://www.w3.org/2000/svg" xmlns:xlink="http://www.w3.org/1999/xlink" x="0px" y="0px"
	 width="343.46px" height="69.333px" viewBox="320.186 186.809 343.46 69.333"
	 enable-background="new 320.186 186.809 343.46 69.333" xml:space="preserve">
<path d="M330.979,192.813c0.539,0,1.365-0.012,2.479-0.035c1.114-0.022,1.98-0.034,2.603-0.034c2.227,0,3.911,0.409,5.054,1.229
	s1.714,1.945,1.714,3.375c0,1.172-0.346,2.247-1.037,3.226c-0.69,0.979-1.594,1.813-2.707,2.506
	c-1.112,0.691-2.326,1.241-3.639,1.651c3.938,0.646,5.906,2.603,5.906,5.871c0,1.629-0.517,3.019-1.547,4.166
	c-1.031,1.148-2.367,2.007-4.009,2.575c-1.641,0.568-3.362,0.853-5.168,0.853c-0.573,0-1.528-0.018-2.864-0.053
	s-2.449-0.053-3.341-0.053c-1.909,0-3.375,0.035-4.395,0.104l0.158-0.721c0.867-0.035,1.515-0.129,1.941-0.281
	c0.428-0.151,0.771-0.434,1.028-0.844s0.504-1.065,0.738-1.969l4.746-17.859c0.198-0.797,0.299-1.371,0.299-1.723
	c0-0.48-0.176-0.826-0.527-1.037c-0.351-0.211-0.983-0.322-1.897-0.334l0.176-0.721
	C327.674,192.778,329.104,192.813,330.979,192.813z M326.9,216.14c0,0.445,0.158,0.762,0.475,0.949
	c0.317,0.187,0.879,0.281,1.688,0.281c3.059,0,5.271-0.615,6.636-1.847c1.365-1.23,2.048-3.053,2.048-5.467
	c0-3.188-1.717-4.781-5.149-4.781h-2.953l-2.408,9.105C327.012,215.237,326.9,215.823,326.9,216.14z M332.174,204.661
	c1.396,0,2.632-0.325,3.709-0.977c1.078-0.65,1.91-1.515,2.496-2.593s0.879-2.238,0.879-3.48c0-1.43-0.308-2.483-0.923-3.164
	c-0.614-0.68-1.603-1.02-2.962-1.02c-0.727,0-1.292,0.07-1.695,0.211c-0.404,0.141-0.725,0.387-0.958,0.738
	c-0.234,0.351-0.445,0.885-0.634,1.6l-2.285,8.685H332.174z"/>
<path d="M353.171,203.167c0.779-1.396,1.57-2.405,2.373-3.032c0.804-0.627,1.68-0.94,2.628-0.94c0.656,0,1.176,0.19,1.557,0.571
	s0.57,0.87,0.57,1.468c0,0.47-0.116,0.902-0.352,1.302c-0.235,0.398-0.545,0.715-0.932,0.948c-0.388,0.234-0.804,0.353-1.248,0.353
	c-0.422,0-0.766-0.114-1.028-0.343c-0.263-0.229-0.396-0.549-0.396-0.958c0-1.078,0.539-1.847,1.617-2.304
	c-0.094-0.094-0.229-0.141-0.403-0.141c-0.855,0-1.771,0.633-2.742,1.897c-0.973,1.266-1.951,3.035-2.937,5.31
	c-0.984,2.273-1.922,4.904-2.813,7.893l-0.756,3.006h-3.129l4.307-15.45c0.176-0.599,0.264-1.066,0.264-1.406
	c0-0.551-0.252-0.826-0.756-0.826c-0.539,0-1.028,0.284-1.468,0.854c-0.44,0.568-0.888,1.509-1.345,2.82l-0.476,1.336h-0.686
	l0.914-2.619c0.844-2.473,2.291-3.709,4.342-3.709c1.383,0,2.074,0.697,2.074,2.093c0,0.387-0.041,0.791-0.123,1.213
	s-0.211,0.996-0.388,1.723l-1.159,4.57C351.563,206.437,352.392,204.562,353.171,203.167z"/>
<path d="M360.571,206.955c0.838-2.175,2.048-4.012,3.63-5.512s3.422-2.25,5.521-2.25c1.534,0,2.738,0.476,3.611,1.425
	c0.873,0.948,1.311,2.354,1.311,4.219c0,1.887-0.419,3.917-1.257,6.091c-0.839,2.174-2.046,4.014-3.621,5.52
	c-1.576,1.507-3.413,2.26-5.512,2.26c-1.534,0-2.741-0.479-3.621-1.434c-0.879-0.955-1.317-2.363-1.317-4.228
	C359.314,211.159,359.733,209.129,360.571,206.955z M366.021,202.253c-1.097,1.559-1.973,3.51-2.628,5.854
	c-0.656,2.345-0.984,4.595-0.984,6.75c0,2.086,0.687,3.129,2.057,3.129c1.23,0,2.392-0.778,3.48-2.338
	c1.089-1.559,1.963-3.507,2.619-5.845s0.983-4.591,0.983-6.759c0-1.078-0.167-1.869-0.501-2.373s-0.847-0.756-1.537-0.756
	C368.279,199.915,367.116,200.694,366.021,202.253z"/>
<path d="M378.132,206.955c0.839-2.175,2.049-4.012,3.631-5.512s3.422-2.25,5.52-2.25c1.535,0,2.739,0.476,3.612,1.425
	c0.873,0.948,1.31,2.354,1.31,4.219c0,1.887-0.419,3.917-1.257,6.091s-2.045,4.014-3.621,5.52c-1.576,1.507-3.413,2.26-5.511,2.26
	c-1.535,0-2.742-0.479-3.621-1.434s-1.318-2.363-1.318-4.228C376.875,211.159,377.294,209.129,378.132,206.955z M383.581,202.253
	c-1.096,1.559-1.972,3.51-2.628,5.854c-0.656,2.345-0.983,4.595-0.983,6.75c0,2.086,0.686,3.129,2.057,3.129
	c1.229,0,2.391-0.778,3.479-2.338c1.09-1.559,1.964-3.507,2.619-5.845c0.656-2.338,0.984-4.591,0.984-6.759
	c0-1.078-0.167-1.869-0.501-2.373s-0.847-0.756-1.538-0.756C385.84,199.915,384.677,200.694,383.581,202.253z"/>
<path d="M403.119,206.155c0.728-0.762,1.418-1.862,2.074-3.305c0.656-1.441,1.289-2.385,1.897-2.83
	c0.728-0.551,1.447-0.826,2.162-0.826c0.773,0,1.33,0.196,1.67,0.59c0.341,0.393,0.492,0.898,0.457,1.521
	c-0.059,0.563-0.261,1.09-0.605,1.582s-0.841,0.738-1.485,0.738c-0.479,0-0.835-0.142-1.063-0.422
	c-0.229-0.281-0.343-0.627-0.343-1.037c0-0.34,0.107-0.719,0.324-1.135c0.218-0.416,0.489-0.775,0.817-1.08h-0.07
	c-0.422,0-0.86,0.163-1.317,0.491c-0.504,0.41-1.062,1.27-1.67,2.575c-0.609,1.306-1.217,2.347-1.819,3.12
	c-0.604,0.773-1.521,1.295-2.751,1.564c1.522,0.069,2.773,0.393,3.753,0.967c0.979,0.574,1.468,1.465,1.468,2.672
	c0,0.305-0.035,0.621-0.104,0.949l-0.722,3.604c-0.059,0.316-0.088,0.551-0.088,0.703c0,0.516,0.271,0.773,0.81,0.773
	c0.479,0,0.932-0.278,1.354-0.835c0.422-0.558,0.861-1.504,1.318-2.84l0.422-1.336h0.686l-0.86,2.638
	c-0.798,2.473-2.228,3.709-4.289,3.709c-0.681,0-1.236-0.196-1.67-0.59c-0.435-0.393-0.65-0.976-0.65-1.748
	c0-0.353,0.041-0.716,0.123-1.091l0.65-3.094c0.104-0.492,0.157-0.938,0.157-1.336c0-0.609-0.138-1.11-0.413-1.503
	c-0.274-0.393-0.721-0.706-1.336-0.94c-0.614-0.233-1.443-0.397-2.486-0.491l-3.007,10.282h-3.129l7.119-24.012
	c0.117-0.41,0.176-0.738,0.176-0.983c0-0.48-0.192-0.832-0.579-1.056c-0.388-0.223-1.021-0.334-1.898-0.334l0.211-0.756
	c2.496-0.035,4.658-0.527,6.486-1.477l-5.256,17.911C401.232,207.362,402.393,206.917,403.119,206.155z"/>
<path d="M415.67,216.403c0,0.646,0.281,0.968,0.845,0.968c0.479,0,0.932-0.278,1.354-0.835c0.422-0.558,0.867-1.504,1.336-2.84
	l0.476-1.336h0.686l-0.896,2.638c-0.867,2.473-2.31,3.709-4.324,3.709c-1.652,0-2.479-0.779-2.479-2.338
	c0-0.691,0.164-1.595,0.492-2.707l5.871-19.478c0.117-0.434,0.176-0.768,0.176-1.002c0-0.479-0.188-0.829-0.563-1.046
	s-1.002-0.325-1.881-0.325l0.245-0.756c1.277-0.012,2.424-0.141,3.438-0.387c1.015-0.246,2.007-0.609,2.98-1.09l-7.524,25.559
	C415.746,215.665,415.67,216.087,415.67,216.403z"/>
<path d="M435.711,210.304c0.961-2.016,1.635-4.002,2.021-5.959c-0.738-0.387-1.38-0.861-1.925-1.424
	c-0.545-0.563-0.817-1.195-0.817-1.898c0-0.573,0.17-1.021,0.511-1.345c0.34-0.323,0.778-0.483,1.317-0.483
	c1.254,0,1.881,0.974,1.881,2.918c0,1.535-0.34,3.265-1.02,5.187c-0.681,1.922-1.563,3.826-2.646,5.713s-2.224,3.58-3.419,5.08
	c-2.25,2.801-4.617,4.793-7.102,5.977c-1.254,0.599-2.298,0.896-3.13,0.896c-0.517,0-0.946-0.129-1.293-0.387
	c-0.346-0.259-0.519-0.621-0.519-1.091c0-0.491,0.193-0.885,0.58-1.178s0.844-0.438,1.371-0.438c0.504,0,0.99,0.123,1.459,0.369
	c0.47,0.245,0.979,0.592,1.53,1.036c1.887-0.995,3.686-2.432,5.396-4.307l-2.653-16.137c-0.13-0.738-0.278-1.254-0.448-1.547
	s-0.407-0.439-0.712-0.439c-0.306,0-0.621,0.234-0.949,0.703s-0.721,1.336-1.178,2.602l-0.457,1.336h-0.688l0.897-2.618
	c0.844-2.449,2.227-3.675,4.147-3.675c0.504,0,0.927,0.101,1.267,0.3c0.34,0.198,0.614,0.539,0.826,1.02
	c0.211,0.481,0.375,1.144,0.491,1.986l1.847,13.535C433.612,214.229,434.749,212.319,435.711,210.304z"/>
<path d="M457.683,214.997c-0.844,2.473-2.297,3.709-4.359,3.709c-1.078,0-1.834-0.353-2.268-1.056
	c-0.188-0.305-0.281-0.696-0.281-1.178c0-0.68,0.205-1.617,0.615-2.813l3.41-10.302c0.246-0.715,0.369-1.307,0.369-1.774
	c0-0.832-0.388-1.248-1.16-1.248c-0.927,0-1.97,0.671-3.129,2.013c-1.16,1.342-2.301,3.186-3.419,5.528
	c-1.119,2.343-2.096,4.944-2.928,7.805l-0.633,2.514h-3.129l4.307-15.45c0.177-0.574,0.265-1.025,0.265-1.354
	c0-0.586-0.265-0.879-0.791-0.879c-0.363,0-0.688,0.114-0.977,0.343c-0.288,0.229-0.573,0.606-0.86,1.134
	c-0.287,0.528-0.602,1.261-0.94,2.197l-0.475,1.336h-0.687l0.914-2.619c0.844-2.473,2.269-3.709,4.271-3.709
	c1.418,0,2.127,0.709,2.127,2.127c0,0.646-0.164,1.611-0.492,2.9l-1.248,4.922c1.031-2.438,2.024-4.383,2.979-5.836
	c0.955-1.453,1.92-2.502,2.893-3.146c0.973-0.645,2.021-0.968,3.146-0.968c1.935,0,2.9,0.902,2.9,2.707
	c0,0.716-0.176,1.623-0.527,2.726l-3.498,10.512c-0.188,0.563-0.28,1.014-0.28,1.354c0,0.586,0.286,0.879,0.86,0.879
	c0.492,0,0.961-0.272,1.406-0.817s0.902-1.497,1.371-2.856l0.475-1.336h0.668L457.683,214.997z"/>
<path d="M473.362,201.813c1.277-2.776,3.063-5.074,5.354-6.891c2.291-1.817,4.872-2.726,7.743-2.726c1.77,0,3.289,0.341,4.562,1.021
	s2.244,1.67,2.918,2.971s1.011,2.865,1.011,4.693c0,2.707-0.645,5.446-1.934,8.218c-1.289,2.772-3.082,5.065-5.379,6.882
	c-2.297,1.817-4.875,2.726-7.734,2.726c-1.77,0-3.287-0.34-4.553-1.021c-1.267-0.68-2.232-1.667-2.9-2.962s-1.002-2.851-1.002-4.667
	C471.446,207.339,472.086,204.591,473.362,201.813z M480.895,195.441c-1.682,1.729-3.041,3.964-4.078,6.706
	s-1.556,5.537-1.556,8.385c0,1.548,0.208,2.887,0.624,4.018s0.999,1.998,1.749,2.602c0.75,0.604,1.61,0.905,2.584,0.905
	c1.815,0,3.564-0.864,5.247-2.593c1.682-1.729,3.041-3.964,4.078-6.706c1.036-2.742,1.556-5.537,1.556-8.385
	c0-1.547-0.211-2.887-0.633-4.018s-1.008-1.998-1.758-2.602c-0.75-0.604-1.611-0.905-2.585-0.905
	C484.319,192.849,482.576,193.713,480.895,195.441z"/>
<path d="M514.39,212.36l-0.896,2.638c-0.866,2.473-2.319,3.709-4.358,3.709c-0.398,0-0.766-0.085-1.1-0.255
	c-0.334-0.171-0.583-0.413-0.747-0.729c-0.141-0.293-0.211-0.662-0.211-1.107c0-0.633,0.17-1.616,0.511-2.952l1.143-4.519
	c-0.961,2.32-1.89,4.182-2.786,5.581c-0.896,1.4-1.799,2.414-2.707,3.041s-1.884,0.94-2.927,0.94c-2.027,0-3.041-0.927-3.041-2.777
	c0-0.75,0.176-1.641,0.527-2.672l3.479-10.512c0.188-0.586,0.281-1.037,0.281-1.354c0-0.586-0.281-0.879-0.844-0.879
	c-0.492,0-0.961,0.272-1.406,0.817s-0.902,1.497-1.371,2.855l-0.475,1.336h-0.687l0.914-2.619c0.844-2.473,2.291-3.709,4.342-3.709
	c1.688,0,2.531,0.744,2.531,2.232c0,0.656-0.193,1.588-0.58,2.795l-3.428,10.301c-0.234,0.703-0.353,1.301-0.353,1.793
	c0,0.82,0.382,1.23,1.144,1.23c0.914,0,1.931-0.668,3.05-2.004s2.221-3.199,3.305-5.59c1.084-2.392,2.036-5.099,2.856-8.121
	l0.545-2.146c1.371-0.035,2.467-0.199,3.287-0.492l-4.465,15.943c-0.177,0.609-0.265,1.078-0.265,1.406
	c0,0.551,0.259,0.826,0.773,0.826c0.527,0,1.011-0.284,1.45-0.854c0.438-0.569,0.888-1.509,1.345-2.821l0.475-1.336h0.688V212.36z"
	/>
<path d="M520.385,215.946c0,0.48,0.144,0.839,0.431,1.072c0.287,0.234,0.665,0.353,1.134,0.353c0.599,0,1.157-0.259,1.68-0.773
	c0.521-0.515,1.027-1.459,1.521-2.83l0.51-1.406h0.687l-0.756,2.269c-0.504,1.488-1.16,2.54-1.97,3.155
	c-0.809,0.614-1.799,0.923-2.971,0.923c-1.078,0-1.884-0.265-2.417-0.791c-0.533-0.527-0.8-1.261-0.8-2.197
	c0-0.574,0.111-1.26,0.334-2.057l3.813-13.254h-3.233l0.176-0.722h3.271l1.563-5.467c1.324-0.035,2.402-0.205,3.234-0.51
	l-1.705,5.977h4.764l-0.104,0.722h-4.853l-4.184,14.729C520.426,215.419,520.385,215.688,520.385,215.946z"/>
<path d="M545.926,212.36l-0.845,2.638c-0.409,1.336-0.992,2.288-1.749,2.855c-0.756,0.568-1.562,0.854-2.417,0.854
	c-0.737,0-1.301-0.193-1.688-0.58c-0.387-0.388-0.58-0.943-0.58-1.67c0-0.646,0.152-1.576,0.457-2.795l0.475-1.812
	c-1.137,2.414-2.284,4.16-3.444,5.238s-2.396,1.617-3.709,1.617c-1.172,0-2.09-0.398-2.751-1.195
	c-0.662-0.797-0.993-1.986-0.993-3.568c0-1.979,0.521-4.134,1.563-6.46s2.455-4.289,4.236-5.889s3.721-2.399,5.818-2.399
	c0.469,0,0.907,0.152,1.317,0.457c0.41,0.306,0.703,0.728,0.879,1.267l1.793-6.732c0.105-0.375,0.158-0.697,0.158-0.967
	c0-0.48-0.188-0.835-0.563-1.063c-0.375-0.228-1.008-0.343-1.898-0.343l0.229-0.756c1.276-0.012,2.42-0.141,3.428-0.387
	s1.986-0.609,2.936-1.09l-7.049,25.559c-0.141,0.48-0.211,0.891-0.211,1.23c0,0.668,0.287,1.002,0.861,1.002
	c0.479,0,0.923-0.278,1.327-0.835c0.404-0.558,0.835-1.504,1.292-2.84l0.438-1.336H545.926z M541.505,200.469
	c-0.347-0.299-0.735-0.448-1.169-0.448c-1.453,0-2.83,0.776-4.132,2.329c-1.301,1.553-2.347,3.463-3.138,5.73
	c-0.791,2.267-1.187,4.38-1.187,6.337c0,2.086,0.526,3.129,1.582,3.129c0.69,0,1.503-0.489,2.435-1.468
	c0.932-0.979,1.852-2.291,2.76-3.938c0.908-1.646,1.661-3.413,2.259-5.3l1.337-4.992
	C542.099,201.228,541.85,200.768,541.505,200.469z"/>
<path d="M549.766,206.955c0.838-2.175,2.048-4.012,3.63-5.512s3.422-2.25,5.52-2.25c1.535,0,2.739,0.476,3.612,1.425
	c0.873,0.948,1.311,2.354,1.311,4.219c0,1.887-0.419,3.917-1.258,6.091c-0.838,2.174-2.045,4.014-3.62,5.52
	c-1.576,1.507-3.413,2.26-5.512,2.26c-1.535,0-2.742-0.479-3.621-1.434s-1.317-2.363-1.317-4.228
	C548.51,211.159,548.928,209.129,549.766,206.955z M555.216,202.253c-1.097,1.559-1.973,3.51-2.628,5.854
	c-0.656,2.345-0.984,4.595-0.984,6.75c0,2.086,0.686,3.129,2.057,3.129c1.23,0,2.392-0.778,3.48-2.338
	c1.089-1.559,1.963-3.507,2.619-5.845s0.983-4.591,0.983-6.759c0-1.078-0.167-1.869-0.501-2.373s-0.847-0.756-1.538-0.756
	C557.474,199.915,556.311,200.694,555.216,202.253z"/>
<path d="M567.326,206.955c0.838-2.175,2.048-4.012,3.63-5.512s3.423-2.25,5.521-2.25c1.535,0,2.739,0.476,3.612,1.425
	c0.873,0.948,1.31,2.354,1.31,4.219c0,1.887-0.419,3.917-1.257,6.091s-2.045,4.014-3.621,5.52c-1.576,1.507-3.413,2.26-5.511,2.26
	c-1.535,0-2.742-0.479-3.621-1.434s-1.318-2.363-1.318-4.228C566.069,211.159,566.488,209.129,567.326,206.955z M572.775,202.253
	c-1.096,1.559-1.972,3.51-2.628,5.854c-0.656,2.345-0.984,4.595-0.984,6.75c0,2.086,0.687,3.129,2.058,3.129
	c1.229,0,2.391-0.778,3.479-2.338c1.089-1.559,1.963-3.507,2.619-5.845s0.984-4.591,0.984-6.759c0-1.078-0.167-1.869-0.501-2.373
	s-0.848-0.756-1.538-0.756C575.034,199.915,573.871,200.694,572.775,202.253z"/>
<path d="M592.094,203.167c0.778-1.396,1.569-2.405,2.373-3.032c0.803-0.627,1.679-0.94,2.628-0.94c0.656,0,1.175,0.19,1.556,0.571
	s0.571,0.87,0.571,1.468c0,0.47-0.117,0.902-0.353,1.302c-0.234,0.398-0.545,0.715-0.932,0.948
	c-0.387,0.234-0.803,0.353-1.248,0.353c-0.422,0-0.765-0.114-1.028-0.343c-0.263-0.229-0.396-0.549-0.396-0.958
	c0-1.078,0.539-1.847,1.617-2.304c-0.095-0.094-0.229-0.141-0.404-0.141c-0.854,0-1.771,0.633-2.742,1.897
	c-0.972,1.266-1.951,3.035-2.936,5.31c-0.985,2.273-1.922,4.904-2.813,7.893l-0.756,3.006h-3.129l4.307-15.45
	c0.177-0.599,0.265-1.066,0.265-1.406c0-0.551-0.252-0.826-0.756-0.826c-0.539,0-1.028,0.284-1.469,0.854
	c-0.439,0.568-0.888,1.509-1.345,2.82l-0.475,1.336h-0.687l0.914-2.619c0.844-2.473,2.291-3.709,4.342-3.709
	c1.384,0,2.074,0.697,2.074,2.093c0,0.387-0.041,0.791-0.123,1.213s-0.211,0.996-0.387,1.723l-1.16,4.57
	C590.485,206.437,591.314,204.562,592.094,203.167z"/>
<path d="M479.966,228.665c3.363,0,5.757-0.035,7.175-0.105c-0.621,1.746-1.113,3.281-1.479,4.605
	c-0.258,0.891-0.485,1.875-0.686,2.953h-0.826c0.271-1.595,0.404-2.789,0.404-3.587c0-0.784-0.126-1.402-0.378-1.854
	s-0.679-0.779-1.275-0.984s-1.431-0.308-2.497-0.308h-1.917c-0.855,0-1.498,0.07-1.926,0.211s-0.771,0.413-1.027,0.817
	c-0.258,0.403-0.51,1.058-0.756,1.96l-2.372,8.858h2.636c1.219,0,2.126-0.365,2.726-1.099c0.598-0.732,1.04-1.471,1.327-2.215
	s0.472-1.223,0.554-1.434h0.827c-0.48,1.466-0.833,2.622-1.056,3.473c-0.224,0.85-0.363,1.392-0.423,1.626
	c-0.504,2.121-0.891,3.826-1.159,5.115h-0.827c0.035-0.212,0.094-0.583,0.176-1.116s0.123-0.993,0.123-1.38
	c0-0.716-0.183-1.27-0.545-1.661c-0.363-0.393-1.002-0.589-1.915-0.589h-2.636l-2.215,8.278c-0.188,0.715-0.28,1.248-0.28,1.601
	c0,0.397,0.1,0.7,0.299,0.904c0.199,0.205,0.516,0.35,0.949,0.432c0.433,0.082,1.048,0.135,1.845,0.158l-0.193,0.721
	c-1.241-0.07-3.004-0.105-5.288-0.105c-2.024,0-3.548,0.035-4.566,0.105l0.192-0.721c0.867-0.035,1.513-0.13,1.934-0.281
	c0.422-0.152,0.762-0.435,1.019-0.844c0.258-0.41,0.511-1.066,0.755-1.97l4.779-17.858c0.211-0.763,0.315-1.349,0.315-1.758
	c0-0.353-0.079-0.618-0.236-0.801c-0.158-0.182-0.404-0.311-0.738-0.387s-0.812-0.126-1.432-0.149l0.176-0.721
	C471.88,228.629,475.358,228.665,479.966,228.665z"/>
<path d="M490.342,237.278c0-0.608-0.258-0.914-0.774-0.914c-0.551,0-1.043,0.29-1.477,0.87c-0.436,0.58-0.893,1.516-1.372,2.805
	l-0.51,1.336h-0.67l0.934-2.619c0.492-1.371,1.137-2.332,1.935-2.883c0.797-0.552,1.643-0.826,2.532-0.826
	c1.595,0,2.392,0.75,2.392,2.25c0,0.703-0.198,1.629-0.598,2.776l-3.852,10.916c-0.188,0.517-0.281,0.955-0.281,1.318
	c0,0.609,0.287,0.914,0.861,0.914c0.492,0,0.956-0.272,1.39-0.817s0.909-1.497,1.425-2.855l0.492-1.336h0.686l-0.932,2.637
	c-0.469,1.301-1.097,2.244-1.882,2.83s-1.636,0.879-2.55,0.879c-1.678,0-2.517-0.731-2.517-2.197c0-0.737,0.212-1.688,0.635-2.848
	l3.868-10.916C490.254,238.069,490.342,237.629,490.342,237.278z M491.519,228.111c0.259-0.428,0.596-0.771,1.012-1.027
	s0.848-0.388,1.292-0.388c0.539,0,0.979,0.18,1.318,0.536c0.339,0.357,0.51,0.807,0.51,1.346c0,0.469-0.126,0.91-0.378,1.326
	s-0.589,0.753-1.011,1.012c-0.422,0.258-0.861,0.387-1.318,0.387c-0.526,0-0.961-0.176-1.302-0.527
	c-0.34-0.352-0.51-0.791-0.51-1.317C491.133,228.987,491.261,228.539,491.519,228.111z"/>
<path d="M498.691,252.254c0,0.645,0.281,0.967,0.844,0.967c0.48,0,0.933-0.278,1.354-0.835s0.867-1.503,1.336-2.839l0.475-1.336
	h0.687l-0.896,2.637c-0.867,2.473-2.309,3.709-4.324,3.709c-1.651,0-2.479-0.779-2.479-2.338c0-0.691,0.164-1.594,0.492-2.707
	l5.871-19.477c0.117-0.435,0.176-0.769,0.176-1.003c0-0.479-0.188-0.828-0.563-1.046c-0.375-0.217-1.002-0.324-1.881-0.324
	l0.246-0.757c1.277-0.012,2.423-0.141,3.438-0.387c1.014-0.246,2.007-0.608,2.979-1.09l-7.522,25.559
	C498.768,251.516,498.691,251.938,498.691,252.254z"/>
<path d="M531.634,250.848c-0.845,2.473-2.297,3.709-4.359,3.709c-1.065,0-1.811-0.328-2.231-0.984c-0.199-0.315-0.3-0.727-0.3-1.229
	c0-0.656,0.199-1.6,0.599-2.83l3.41-10.301c0.245-0.785,0.368-1.418,0.368-1.898c0-0.75-0.264-1.125-0.791-1.125
	c-0.926,0-1.937,0.728-3.031,2.181c-1.096,1.452-2.206,3.469-3.331,6.047s-2.209,5.549-3.252,8.912l0.034-0.177l-0.245,0.896h-3.252
	l4.5-14.836c0.245-0.762,0.368-1.377,0.368-1.846c0-0.785-0.334-1.179-1.002-1.179c-0.879,0-1.859,0.687-2.943,2.058
	s-2.156,3.242-3.218,5.615c-1.061,2.373-1.994,4.995-2.804,7.866l-0.58,2.32h-3.129l4.308-15.451
	c0.176-0.598,0.264-1.037,0.264-1.318c0-0.608-0.252-0.913-0.756-0.913c-0.539,0-1.028,0.283-1.468,0.853
	c-0.44,0.569-0.889,1.509-1.346,2.821l-0.475,1.336h-0.687l0.914-2.619c0.845-2.473,2.291-3.709,4.343-3.709
	c1.395,0,2.092,0.721,2.092,2.162c0,0.715-0.177,1.67-0.527,2.865l-1.143,4.534c0.961-2.354,1.881-4.229,2.76-5.625
	c0.879-1.395,1.767-2.398,2.663-3.015c0.896-0.616,1.866-0.923,2.909-0.923c1.569,0,2.354,0.844,2.354,2.531
	c0,0.762-0.158,1.729-0.475,2.899l-1.283,4.765c1.008-2.509,1.954-4.497,2.839-5.969c0.885-1.471,1.787-2.543,2.707-3.217
	s1.942-1.011,3.067-1.011c0.891,0,1.535,0.243,1.934,0.729c0.399,0.486,0.598,1.141,0.598,1.96c0,0.81-0.17,1.724-0.51,2.742
	l-3.498,10.512c-0.176,0.563-0.264,1.021-0.264,1.371c0,0.574,0.281,0.861,0.844,0.861c0.492,0,0.961-0.271,1.406-0.817
	c0.445-0.545,0.902-1.496,1.371-2.855l0.475-1.336h0.668L531.634,250.848z"/>
<path d="M559.406,228.665c3.363,0,5.754-0.035,7.172-0.105c-0.621,1.746-1.112,3.281-1.477,4.605
	c-0.258,0.891-0.486,1.875-0.686,2.953h-0.826c0.27-1.595,0.403-2.789,0.403-3.587c0-0.784-0.126-1.402-0.378-1.854
	s-0.677-0.779-1.273-0.984c-0.598-0.205-1.431-0.308-2.496-0.308h-1.916c-0.855,0-1.497,0.07-1.925,0.211
	c-0.429,0.141-0.771,0.413-1.028,0.817c-0.257,0.403-0.51,1.058-0.756,1.96l-2.373,8.858h2.637c1.219,0,2.127-0.365,2.726-1.099
	c0.598-0.733,1.04-1.471,1.327-2.215c0.286-0.744,0.472-1.223,0.554-1.434h0.826c-0.48,1.466-0.832,2.622-1.056,3.473
	c-0.223,0.85-0.362,1.392-0.422,1.626c-0.504,2.121-0.891,3.826-1.16,5.115h-0.825c0.034-0.212,0.094-0.583,0.176-1.116
	s0.123-0.993,0.123-1.38c0-0.716-0.183-1.27-0.545-1.661c-0.363-0.393-1.002-0.589-1.916-0.589h-2.638l-2.215,8.278
	c-0.188,0.715-0.281,1.248-0.281,1.601c0,0.397,0.101,0.7,0.3,0.904c0.198,0.205,0.516,0.35,0.948,0.432
	c0.434,0.082,1.05,0.135,1.847,0.158l-0.193,0.721c-1.242-0.07-3.006-0.105-5.291-0.105c-2.027,0-3.551,0.035-4.57,0.105
	l0.193-0.721c0.867-0.035,1.512-0.13,1.934-0.281c0.423-0.152,0.763-0.435,1.021-0.844c0.258-0.41,0.51-1.066,0.756-1.97
	l4.781-17.858c0.211-0.763,0.315-1.349,0.315-1.758c0-0.353-0.079-0.618-0.236-0.801c-0.158-0.182-0.404-0.311-0.738-0.387
	s-0.812-0.126-1.433-0.149l0.176-0.721C551.32,228.629,554.802,228.665,559.406,228.665z"/>
<path d="M572.871,252.087c-0.75,0.731-1.591,1.327-2.521,1.784s-1.884,0.686-2.856,0.686c-1.487,0-2.65-0.437-3.488-1.31
	c-0.839-0.873-1.258-2.13-1.258-3.771c0-1.815,0.533-3.87,1.601-6.161c1.066-2.291,2.511-4.242,4.333-5.854
	c1.821-1.612,3.8-2.417,5.933-2.417c0.773,0,1.412,0.205,1.916,0.615c0.504,0.409,0.756,0.995,0.756,1.758
	c0,1.944-1.084,3.639-3.252,5.08c-2.168,1.44-4.67,2.643-7.506,3.604c-0.27,1.195-0.404,2.355-0.404,3.48
	c0,2.309,0.826,3.463,2.479,3.463c2.051,0,3.901-1.201,5.555-3.604l0.58,0.281C574.242,250.567,573.621,251.355,572.871,252.087z
	 M571.236,237.076c-0.949,0.896-1.837,2.092-2.663,3.586c-0.826,1.493-1.456,3.079-1.89,4.755c2.367-0.832,4.002-1.605,4.904-2.32
	c0.891-0.691,1.582-1.532,2.073-2.521c0.492-0.99,0.738-2.065,0.738-3.227c0-0.645-0.047-1.075-0.141-1.292
	c-0.095-0.217-0.24-0.325-0.439-0.325C573.048,235.731,572.186,236.179,571.236,237.076z"/>
<path d="M581.555,253.836c1.09,0,1.969-0.325,2.637-0.977c0.668-0.65,1.002-1.562,1.002-2.732c0-0.763-0.144-1.513-0.431-2.25
	c-0.287-0.738-0.771-1.576-1.45-2.515c-0.574-0.784-0.999-1.389-1.274-1.811c-0.274-0.422-0.521-0.926-0.737-1.512
	s-0.325-1.22-0.325-1.898c0-0.996,0.249-1.881,0.747-2.654c0.498-0.772,1.175-1.374,2.03-1.802c0.854-0.428,1.793-0.642,2.813-0.642
	c1.242,0,2.285,0.23,3.129,0.693c0.845,0.464,1.267,1.274,1.267,2.436c0,0.258-0.06,0.53-0.177,0.816
	c-0.116,0.287-0.302,0.533-0.554,0.738s-0.565,0.309-0.94,0.309c-0.409,0-0.753-0.142-1.027-0.423
	c-0.275-0.28-0.413-0.645-0.413-1.09c0-0.772,0.34-1.576,1.02-2.407c-0.479-0.281-1.084-0.423-1.811-0.423
	c-0.914,0-1.664,0.306-2.25,0.914c-0.586,0.609-0.879,1.441-0.879,2.496c0,0.633,0.104,1.175,0.315,1.626s0.517,0.961,0.914,1.529
	c0.398,0.568,0.709,1.017,0.933,1.345c0.715,1.113,1.248,2.063,1.6,2.849c0.353,0.784,0.527,1.6,0.527,2.442
	c0,1.09-0.281,2.065-0.845,2.927c-0.563,0.862-1.314,1.532-2.259,2.014c-0.943,0.48-1.972,0.721-3.085,0.721
	c-1.383,0-2.54-0.293-3.472-0.879c-0.933-0.586-1.397-1.482-1.397-2.689c0-0.422,0.114-0.797,0.344-1.125
	c0.229-0.327,0.583-0.491,1.063-0.491c0.539,0,0.938,0.217,1.195,0.649c0.257,0.434,0.387,0.974,0.387,1.617
	c0,0.422-0.082,1.043-0.246,1.863C580.348,253.725,580.898,253.836,581.555,253.836z"/>
<path d="M595.705,251.797c0,0.479,0.145,0.838,0.432,1.072c0.287,0.233,0.665,0.352,1.134,0.352c0.598,0,1.157-0.258,1.679-0.773
	c0.522-0.515,1.028-1.459,1.521-2.829l0.51-1.406h0.686l-0.756,2.268c-0.504,1.488-1.159,2.54-1.969,3.155
	c-0.809,0.615-1.799,0.923-2.971,0.923c-1.078,0-1.884-0.264-2.417-0.791c-0.533-0.526-0.8-1.26-0.8-2.197
	c0-0.573,0.11-1.26,0.334-2.057l3.813-13.254h-3.233l0.176-0.721h3.27l1.564-5.468c1.324-0.034,2.402-0.204,3.234-0.51l-1.705,5.978
	h4.764l-0.105,0.721h-4.852l-4.184,14.729C595.746,251.27,595.705,251.54,595.705,251.797z"/>
<path d="M609.521,237.278c0-0.608-0.258-0.914-0.773-0.914c-0.551,0-1.043,0.29-1.477,0.87s-0.891,1.516-1.371,2.805l-0.51,1.336
	h-0.668l0.932-2.619c0.492-1.371,1.137-2.332,1.935-2.883c0.797-0.552,1.641-0.826,2.53-0.826c1.595,0,2.392,0.75,2.392,2.25
	c0,0.703-0.199,1.629-0.599,2.776l-3.85,10.916c-0.188,0.517-0.281,0.955-0.281,1.318c0,0.609,0.287,0.914,0.861,0.914
	c0.492,0,0.955-0.272,1.389-0.817c0.435-0.545,0.908-1.497,1.424-2.855l0.492-1.336h0.687l-0.933,2.637
	c-0.469,1.301-1.096,2.244-1.881,2.83s-1.635,0.879-2.549,0.879c-1.676,0-2.514-0.731-2.514-2.197c0-0.737,0.211-1.688,0.633-2.848
	l3.867-10.916C609.434,238.069,609.521,237.629,609.521,237.278z M610.699,228.111c0.258-0.428,0.596-0.771,1.012-1.027
	s0.847-0.388,1.291-0.388c0.539,0,0.979,0.18,1.318,0.536c0.339,0.357,0.51,0.807,0.51,1.346c0,0.469-0.126,0.91-0.378,1.326
	s-0.589,0.753-1.011,1.012c-0.422,0.258-0.861,0.387-1.318,0.387c-0.526,0-0.961-0.176-1.301-0.527
	c-0.34-0.351-0.51-0.791-0.51-1.317C610.313,228.987,610.441,228.539,610.699,228.111z"/>
<path d="M622.45,242.173c-1.084,2.373-1.73,4.808-1.941,7.304c-0.023,0.398-0.035,0.68-0.035,0.844c0,2.027,0.526,3.041,1.582,3.041
	c1.758,0,3.34-0.731,4.746-2.196c1.405-1.465,2.52-3.221,3.34-5.266s1.271-3.876,1.354-5.493c-0.797-0.397-1.452-0.929-1.969-1.591
	c-0.516-0.662-0.738-1.427-0.668-2.294c0.035-0.516,0.211-0.896,0.527-1.143c0.315-0.247,0.668-0.369,1.055-0.369
	c0.68,0,1.189,0.325,1.529,0.976c0.34,0.651,0.51,1.538,0.51,2.663c0,0.388-0.029,0.861-0.088,1.424
	c-0.293,2.484-0.923,4.828-1.891,7.031c-0.967,2.203-2.259,3.996-3.876,5.379c-1.616,1.383-3.485,2.074-5.606,2.074
	c-1.418,0-2.461-0.39-3.129-1.169s-1.002-1.749-1.002-2.909l0.018-0.387c0.142-1.98,0.964-4.181,2.47-6.602
	c1.506-2.42,3.467-4.783,5.881-7.093c-0.435,0.164-1.022,0.476-1.768,0.933s-1.333,0.797-1.767,1.02
	c-0.435,0.223-0.839,0.334-1.214,0.334c-0.211,0-0.403-0.041-0.579-0.123c-0.177-0.082-0.438-0.233-0.782-0.457
	c-0.345-0.223-0.647-0.334-0.905-0.334c-0.375,0-0.688,0.161-0.94,0.483c-0.252,0.322-0.523,0.905-0.816,1.749l-0.404,1.336h-0.686
	l0.791-2.619c0.668-2.449,1.799-3.674,3.393-3.674c0.457,0,0.895,0.155,1.311,0.466s0.75,0.545,1.002,0.703s0.57,0.237,0.958,0.237
	c1.194,0,2.203-0.375,3.022-1.125l0.369-0.687l0.756,0.369C625.05,237.413,623.534,239.8,622.45,242.173z"/>
<path d="M650.689,248.176l-0.896,2.637c-0.492,1.336-1.107,2.294-1.847,2.874c-0.738,0.58-1.506,0.87-2.303,0.87
	c-0.445,0-0.841-0.085-1.188-0.255c-0.346-0.17-0.611-0.401-0.8-0.694c-0.198-0.352-0.299-0.772-0.299-1.266
	c0-0.353,0.041-0.718,0.123-1.099c0.082-0.382,0.17-0.744,0.264-1.091c0.095-0.346,0.152-0.57,0.177-0.677l0.649-2.619
	c-1.147,2.695-2.316,4.652-3.507,5.871c-1.189,1.219-2.435,1.828-3.735,1.828c-1.102,0-1.941-0.396-2.521-1.187
	s-0.87-1.85-0.87-3.174c0-1.944,0.52-4.118,1.556-6.521c1.037-2.402,2.38-4.441,4.025-6.117c1.646-1.676,3.331-2.514,5.054-2.514
	c0.634,0,1.157,0.233,1.573,0.703c0.416,0.469,0.659,1.131,0.729,1.985l0.563-2.196c1.336-0.035,2.443-0.199,3.322-0.492
	l-4.5,15.908c-0.176,0.633-0.264,1.077-0.264,1.336c0,0.598,0.27,0.896,0.809,0.896c1.055,0,1.975-1.225,2.76-3.674l0.439-1.336
	h0.686V248.176z M646.436,238.86c0-0.961-0.173-1.723-0.519-2.284c-0.347-0.563-0.836-0.845-1.469-0.845
	c-1.02,0-2.105,0.794-3.261,2.382c-1.155,1.589-2.121,3.555-2.9,5.897c-0.778,2.343-1.169,4.547-1.169,6.609
	c0,0.995,0.105,1.708,0.316,2.136s0.521,0.642,0.932,0.642c0.668,0,1.469-0.513,2.399-1.538c0.931-1.024,1.846-2.394,2.742-4.104
	c0.896-1.71,1.638-3.539,2.224-5.484l0.668-2.619C646.425,239.276,646.436,239.012,646.436,238.86z"/>
<path d="M655.893,252.254c0,0.645,0.281,0.967,0.844,0.967c0.48,0,0.933-0.278,1.354-0.835s0.867-1.503,1.336-2.839l0.475-1.336
	h0.687l-0.896,2.637c-0.867,2.473-2.309,3.709-4.324,3.709c-1.651,0-2.479-0.779-2.479-2.338c0-0.691,0.164-1.594,0.492-2.707
	l5.87-19.477c0.117-0.435,0.177-0.769,0.177-1.003c0-0.479-0.188-0.828-0.563-1.046c-0.375-0.217-1.002-0.324-1.881-0.324
	l0.246-0.757c1.277-0.012,2.423-0.141,3.438-0.387c1.014-0.246,2.007-0.608,2.979-1.09l-7.523,25.559
	C655.969,251.516,655.893,251.938,655.893,252.254z"/>
<line stroke-linecap="round" stroke-miterlimit="10" x1="390.204" y1="229.068" x2="484.137" y2="229.068"/>
<line stroke-linecap="round" stroke-miterlimit="10" x1="584.994" y1="217.701" x2="663.635" y2="217.701"/>
</svg>
